<?xml version="1.0" encoding="UTF-8"?>
<svg id="Layer_2" data-name="Layer 2" xmlns="http://www.w3.org/2000/svg" viewBox="0 0 1132.42 392.83">
  <defs>
    <style>
      .cls-1 {
        fill: #00994d;
      }

      .cls-2 {
        fill: #ee4038;
      }

      .cls-3 {
        fill: #fbba16;
      }

      .cls-4 {
        fill: #29256a;
      }
    </style>
  </defs>
  <g id="Layer_1-2" data-name="Layer 1">
    <g>
      <g>
        <path class="cls-4" d="M474.5,281.9v-121.99h-47.84v-27.18h128.51v27.18h-48.06v121.99h-32.62Z"/>
        <path class="cls-4" d="M543.65,281.9l57.41-149.17h40.01l57.41,149.17h-35.01l-10.66-29.36h-65.02l-10.65,29.36h-33.49ZM597.14,226.45h46.32l-13.26-36.75c-.58-1.59-1.27-3.51-2.07-5.76-.8-2.25-1.63-4.75-2.5-7.5-.87-2.75-1.71-5.47-2.5-8.15-.8-2.68-1.56-5.11-2.28-7.28h-1.3c-.73,2.76-1.67,5.98-2.83,9.68-1.16,3.7-2.32,7.25-3.48,10.65-1.16,3.41-2.1,6.2-2.83,8.37l-13.26,36.75Z"/>
        <path class="cls-4" d="M716.31,281.9v-149.17h77.63c10.73,0,19.68,1.99,26.86,5.98,7.18,3.99,12.61,9.57,16.31,16.74,3.7,7.18,5.54,15.69,5.54,25.55s-1.92,18.45-5.76,25.77c-3.84,7.32-9.46,13.01-16.85,17.07-7.39,4.06-16.46,6.09-27.18,6.09h-44.14v51.97h-32.4ZM748.71,203.4h39.79c6.81,0,12.07-1.96,15.77-5.87,3.7-3.91,5.54-9.35,5.54-16.31,0-4.78-.8-8.77-2.39-11.96-1.6-3.19-3.95-5.65-7.07-7.39-3.12-1.74-7.07-2.61-11.85-2.61h-39.79v44.14Z"/>
        <path class="cls-4" d="M895.92,284.51c-7.25,0-13.12-1.3-17.61-3.91-4.5-2.61-7.76-6.12-9.79-10.55-2.03-4.42-3.04-9.31-3.04-14.68v-64.58h-14.13v-23.27h15.22l5.65-32.62h23.49v32.62h20.88v23.27h-20.88v59.58c0,3.48.79,6.13,2.39,7.94,1.59,1.81,4.2,2.72,7.83,2.72h10.66v20.01c-1.74.58-3.77,1.12-6.09,1.63-2.32.51-4.78.94-7.39,1.3-2.61.36-5,.54-7.18.54Z"/>
        <path class="cls-4" d="M936.15,150.78v-26.09h30.23v26.09h-30.23ZM936.15,281.9v-114.38h30.23v114.38h-30.23Z"/>
        <path class="cls-4" d="M994.21,281.9V124.47h30.23v90.68l40.01-47.62h35.45l-39.14,44.8,41.1,69.58h-34.58l-26.31-48.27-16.53,16.09v32.18h-30.23Z"/>
      </g>
      <g>
        <path class="cls-4" d="M448.18,355.56v-31.61h-12.99v-6.63h33.79v6.63h-13.05v31.61h-7.75Z"/>
        <path class="cls-4" d="M465.63,355.56l15.5-38.25h9.59l15.55,38.25h-8.42l-3.07-7.86h-18.12l-3.01,7.86h-8.03ZM479.18,341.29h13.1l-3.85-9.92c-.15-.37-.33-.86-.56-1.48s-.46-1.27-.7-1.98c-.24-.71-.48-1.41-.72-2.12-.24-.71-.44-1.28-.58-1.73h-.28c-.26.74-.56,1.59-.89,2.54-.33.95-.65,1.85-.95,2.7-.3.86-.56,1.54-.78,2.06l-3.79,9.92Z"/>
        <path class="cls-4" d="M511.12,355.56v-38.25h20.85c2.75,0,5.05.5,6.89,1.51s3.22,2.43,4.15,4.29c.93,1.86,1.39,4.03,1.39,6.52s-.48,4.67-1.45,6.55c-.97,1.88-2.41,3.33-4.32,4.35s-4.26,1.53-7.05,1.53h-12.71v13.49h-7.75ZM518.87,335.6h11.93c1.82,0,3.24-.52,4.27-1.56,1.02-1.04,1.53-2.49,1.53-4.35,0-1.3-.22-2.38-.67-3.23-.45-.85-1.09-1.51-1.92-1.98s-1.91-.7-3.21-.7h-11.93v11.82Z"/>
        <path class="cls-4" d="M545.47,355.56v-7.58h7.75v7.58h-7.75Z"/>
        <path class="cls-4" d="M592.13,356.23c-4.13,0-7.64-.7-10.54-2.09s-5.1-3.55-6.61-6.47c-1.51-2.92-2.26-6.66-2.26-11.23,0-6.65,1.69-11.62,5.07-14.89,3.38-3.27,8.14-4.91,14.27-4.91,3.38,0,6.42.55,9.12,1.65,2.69,1.1,4.82,2.75,6.38,4.96,1.56,2.21,2.34,5.01,2.34,8.39h-7.86c0-1.86-.42-3.42-1.25-4.68-.84-1.26-1.99-2.22-3.46-2.87-1.47-.65-3.19-.98-5.16-.98-2.53,0-4.66.47-6.38,1.42-1.73.95-3.01,2.36-3.85,4.24s-1.25,4.21-1.25,7v1.34c0,2.79.42,5.11,1.25,6.97.84,1.86,2.11,3.27,3.82,4.24,1.71.97,3.85,1.45,6.41,1.45,2.08,0,3.88-.32,5.38-.95,1.51-.63,2.69-1.58,3.54-2.84.85-1.26,1.28-2.82,1.28-4.68h7.53c0,3.34-.77,6.12-2.31,8.33-1.54,2.21-3.64,3.87-6.3,4.96-2.66,1.1-5.71,1.64-9.17,1.64Z"/>
        <path class="cls-4" d="M635.34,356.23c-4.2,0-7.82-.72-10.87-2.17-3.05-1.45-5.37-3.64-6.97-6.58-1.6-2.94-2.4-6.62-2.4-11.04s.8-8.15,2.4-11.07c1.6-2.92,3.92-5.1,6.97-6.55,3.05-1.45,6.67-2.17,10.87-2.17s7.81.73,10.82,2.17,5.32,3.63,6.94,6.55c1.62,2.92,2.42,6.61,2.42,11.07s-.81,8.1-2.42,11.04c-1.62,2.94-3.93,5.13-6.94,6.58-3.01,1.45-6.62,2.17-10.82,2.17ZM635.28,349.77c1.97,0,3.71-.27,5.21-.81,1.51-.54,2.79-1.35,3.85-2.42,1.06-1.08,1.87-2.4,2.42-3.96.56-1.56.84-3.36.84-5.41v-1.34c0-2.12-.28-3.97-.84-5.55-.56-1.58-1.37-2.9-2.42-3.96s-2.34-1.86-3.85-2.4c-1.5-.54-3.24-.81-5.21-.81s-3.71.27-5.21.81c-1.5.54-2.78,1.34-3.82,2.4-1.04,1.06-1.83,2.38-2.37,3.96-.54,1.58-.81,3.43-.81,5.55v1.34c0,2.04.27,3.85.81,5.41.54,1.56,1.33,2.88,2.37,3.96,1.04,1.08,2.31,1.89,3.82,2.42,1.51.54,3.24.81,5.21.81Z"/>
        <path class="cls-4" d="M662.6,355.56v-38.25h7.3l16.84,21.69c.22.3.5.66.84,1.09.33.43.67.87,1,1.34.33.47.58.83.73,1.09h.28c.04-.59.06-1.2.06-1.81v-23.39h7.36v38.25h-7.25l-16.89-21.91c-.45-.52-.92-1.15-1.42-1.9-.5-.74-.88-1.3-1.14-1.67h-.33c.04.52.06,1.09.08,1.7.02.61.03,1.27.03,1.98v21.8h-7.47Z"/>
        <path class="cls-4" d="M716.68,355.56l-14.66-38.25h8.47l8.98,25.09c.22.45.43.97.61,1.56s.39,1.16.61,1.7c.22.54.39,1.03.5,1.48h.33c.15-.41.32-.87.5-1.39.19-.52.38-1.07.58-1.64.2-.58.42-1.14.64-1.7l8.86-25.09h8.14l-14.66,38.25h-8.92Z"/>
        <path class="cls-4" d="M745.28,355.56v-38.25h31.5v6.47h-23.69v9.03h21.02v6.47h-21.02v9.76h24.03v6.52h-31.83Z"/>
        <path class="cls-4" d="M784.64,355.56v-38.25h22.02c2.79,0,5.1.49,6.94,1.48,1.84.99,3.22,2.38,4.15,4.18.93,1.8,1.39,3.88,1.39,6.22s-.57,4.65-1.7,6.58-2.78,3.4-4.93,4.4l7.86,15.39h-8.47l-6.97-14.05h-12.54v14.05h-7.75ZM792.39,335.16h13.27c1.78,0,3.17-.53,4.15-1.59.98-1.06,1.48-2.48,1.48-4.26,0-1.19-.22-2.19-.67-3.01-.45-.82-1.09-1.44-1.92-1.87-.84-.43-1.85-.64-3.04-.64h-13.27v11.37Z"/>
        <path class="cls-4" d="M835.6,355.56v-31.61h-12.99v-6.63h33.79v6.63h-13.05v31.61h-7.75Z"/>
        <path class="cls-4" d="M859.57,355.56v-7.58h7.75v7.58h-7.75Z"/>
        <path class="cls-4" d="M906.24,356.23c-4.13,0-7.64-.7-10.54-2.09s-5.1-3.55-6.61-6.47c-1.51-2.92-2.26-6.66-2.26-11.23,0-6.65,1.69-11.62,5.07-14.89,3.38-3.27,8.14-4.91,14.27-4.91,3.38,0,6.42.55,9.12,1.65,2.69,1.1,4.82,2.75,6.38,4.96,1.56,2.21,2.34,5.01,2.34,8.39h-7.86c0-1.86-.42-3.42-1.25-4.68-.84-1.26-1.99-2.22-3.46-2.87-1.47-.65-3.19-.98-5.16-.98-2.53,0-4.66.47-6.38,1.42-1.73.95-3.01,2.36-3.85,4.24s-1.25,4.21-1.25,7v1.34c0,2.79.42,5.11,1.25,6.97.84,1.86,2.11,3.27,3.82,4.24,1.71.97,3.85,1.45,6.41,1.45,2.08,0,3.88-.32,5.38-.95,1.51-.63,2.69-1.58,3.54-2.84.85-1.26,1.28-2.82,1.28-4.68h7.53c0,3.34-.77,6.12-2.31,8.33-1.54,2.21-3.64,3.87-6.3,4.96-2.66,1.1-5.71,1.64-9.17,1.64Z"/>
        <path class="cls-4" d="M930.88,355.56v-38.25h22.02c2.79,0,5.1.49,6.94,1.48,1.84.99,3.22,2.38,4.15,4.18.93,1.8,1.39,3.88,1.39,6.22s-.57,4.65-1.7,6.58-2.78,3.4-4.93,4.4l7.86,15.39h-8.47l-6.97-14.05h-12.54v14.05h-7.75ZM938.63,335.16h13.27c1.78,0,3.17-.53,4.15-1.59.98-1.06,1.48-2.48,1.48-4.26,0-1.19-.22-2.19-.67-3.01-.45-.82-1.09-1.44-1.92-1.87-.84-.43-1.85-.64-3.04-.64h-13.27v11.37Z"/>
        <path class="cls-4" d="M972.86,355.56v-38.25h31.5v6.47h-23.69v9.03h21.02v6.47h-21.02v9.76h24.03v6.52h-31.83Z"/>
        <path class="cls-4" d="M1008.26,355.56l15.5-38.25h9.59l15.55,38.25h-8.42l-3.07-7.86h-18.12l-3.01,7.86h-8.03ZM1021.81,341.29h13.1l-3.85-9.92c-.15-.37-.33-.86-.56-1.48s-.46-1.27-.7-1.98c-.24-.71-.48-1.41-.72-2.12-.24-.71-.44-1.28-.58-1.73h-.28c-.26.74-.56,1.59-.89,2.54-.33.95-.65,1.85-.95,2.7-.3.86-.56,1.54-.78,2.06l-3.79,9.92Z"/>
        <path class="cls-4" d="M1058.55,355.56v-31.61h-12.99v-6.63h33.79v6.63h-13.05v31.61h-7.75Z"/>
        <path class="cls-4" d="M1085.15,355.56v-38.25h31.5v6.47h-23.69v9.03h21.02v6.47h-21.02v9.76h24.03v6.52h-31.83Z"/>
        <path class="cls-4" d="M1124.67,355.56v-7.58h7.75v7.58h-7.75Z"/>
      </g>
      <g>
        <path class="cls-4" d="M64.27,21.27C28.78,21.27,0,50.05,0,85.55v228.3c8.94-3.58,18.44-3.49,26.81-.37V85.55c0-20.66,16.81-37.47,37.46-37.47h46.84l5.41-26.81h-52.25ZM344.74,145.94v182.61c0,20.66-16.81,37.47-37.46,37.47h-167.44c-1.78,3.05-3.69,6.05-5.72,9.01-4.62,6.69-9.73,12.64-15.21,17.8h188.38c35.5,0,64.27-28.78,64.27-64.28V122.55c-9.54,7.06-18.45,14.93-26.81,23.39ZM334.33,59.65c7.88-4.96,15.87-9.36,23.96-13.2-11.74-15.31-30.22-25.17-51.01-25.17h-105.59c-.61,4.45-2.16,8.76-4.59,12.65l-8.85,14.16h119.03c10.62,0,20.23,4.45,27.05,11.57Z"/>
        <g>
          <path class="cls-2" d="M141.88,296.44c11.8-41.22,19.1-83.71,21.41-126.51l-35.02-34.13c1.27,37.02-1.42,74.28-8,110.76-1.2,6.19-2.8,14.75-4.23,20.83-3.18,13.68-6.48,28.18-10.74,41.89l24.53,23.9c4.93-12.1,8.69-24.62,12.06-36.74Z"/>
          <path class="cls-2" d="M211.41,244.12c.5-8.49,1.14-16.97,1.91-25.44l-36.88-35.94c-1.09,9.87-1.99,19.76-2.66,29.66-1.69,23.74-2.18,47.56-1.64,71.34.07,3.05.21,5.67.79,8.93,5.22,30.61,41.73,33.21,53.57,5.4,3.22-6.76,4.58-12.56,7.4-18.85,2.97-6.45,8.44-18.35,11.41-24.77.51-1.04,1.02-2.08,1.53-3.13l-25.8-25.14c-3.34,6.03-6.55,12.02-9.62,17.93Z"/>
          <path class="cls-3" d="M221.03,226.2l25.8,25.14c20.75-42.15,45.76-85.05,78.61-119.25l-20.18-19.66c-34.23,32.71-62.24,74.13-84.23,113.78Z"/>
          <path class="cls-3" d="M221.76,154.21c3.59-27.32-35.24-33.74-40.63-6.7-1.83,11.71-3.4,23.46-4.7,35.23l36.88,35.94c1.96-21.6,4.77-43.11,8.45-64.47Z"/>
          <path class="cls-3" d="M163.6,117.8c-2.08-24.36-36.77-22.26-36.14,1.94.35,5.35.62,10.71.8,16.07l35.02,34.13c.94-17.35,1.06-34.75.32-52.14Z"/>
          <path class="cls-3" d="M155.57.78c-5.15-2.32-11.13.75-12.25,6.29l-10.88,53.88c-.77,3.8,1.04,7.66,4.46,9.5,4.09,2.2,9.18.85,11.64-3.09l28.67-45.86c2.83-4.53,1.01-10.51-3.85-12.7L155.57.78Z"/>
          <path class="cls-1" d="M405.09,54.64c-37.77,8.9-71.01,30.25-99.83,57.78l20.18,19.66c23.19-24.14,50.29-43.96,82.56-56.13l1.68-.64.42-.16s.26-.08-.14.02c-.34.07-.1.02-.18.03,1.2-.44,3.22-.63,4.19-.58,1.01.06,1.58.04,2.39.43,2.63,1.56,3.94,5.81,4.8,9.31.44,2.03,1.83,3.78,3.96,4.45,3.06.98,6.33-.7,7.32-3.76,1.47-4.6,1.95-10.22.44-15.24-3.03-11.77-16.54-17.42-27.78-15.19Z"/>
          <path class="cls-1" d="M105.29,309.28c-1.99,6.4-4.19,12.63-6.68,18.52-5.89,13.26-13.05,27.05-26.37,33.43-12.08,5.18-26.38,2.49-36.28-6.02-4.13-3.48-7.51-7.85-9.71-12.62-3.15-6.73-11.11-9.77-17.96-6.79-6.98,3.03-10.18,11.15-7.14,18.12,3.76,8.66,9.42,16.28,16.34,22.44,17.42,15.95,44.37,21.09,66.25,11.97,12.97-5.3,23.29-15.38,31.03-26.58,6.12-8.92,10.98-18.6,15.05-28.57l-24.53-23.9Z"/>
        </g>
      </g>
    </g>
  </g>
</svg>